<?xml version="1.0" standalone="no"?>
<!DOCTYPE svg PUBLIC "-//W3C//DTD SVG 20010904//EN"
 "http://www.w3.org/TR/2001/REC-SVG-20010904/DTD/svg10.dtd">
<svg version="1.0" xmlns="http://www.w3.org/2000/svg"
 width="512.000000pt" height="512.000000pt" viewBox="0 0 512.000000 512.000000"
 preserveAspectRatio="xMidYMid meet">

<g transform="translate(0.000000,512.000000) scale(0.100000,-0.100000)"
fill="#000000" stroke="none">
<path d="M1510 4365 l0 -755 -755 0 -755 0 0 -150 0 -150 755 0 755 0 0 -750
0 -750 -755 0 -755 0 0 -150 0 -150 755 0 755 0 0 -755 0 -755 150 0 150 0 0
755 0 755 750 0 750 0 0 -755 0 -755 150 0 150 0 2 753 3 752 753 3 752 2 0
150 0 150 -755 0 -755 0 0 750 0 750 755 0 755 0 0 150 0 150 -752 2 -753 3
-3 753 -2 752 -150 0 -150 0 0 -755 0 -755 -750 0 -750 0 0 755 0 755 -150 0
-150 0 0 -755z m1800 -1805 l0 -750 -750 0 -750 0 0 750 0 750 750 0 750 0 0
-750z"/>
<path d="M2657 2862 l-97 -97 0 -205 0 -205 97 -97 98 -98 102 102 103 103
-97 97 -98 98 98 98 97 97 -103 103 -102 102 -98 -98z"/>
<path d="M4070 4665 l-105 -105 98 -98 97 -97 -97 -98 -98 -97 103 -102 102
-103 97 98 98 97 97 -97 98 -98 105 105 105 105 -97 97 -98 98 98 97 97 98
-102 102 -103 103 -97 -97 -98 -98 -98 98 -97 97 -105 -105z"/>
<path d="M4065 1050 l-100 -100 98 -98 97 -97 -97 -98 -98 -97 105 -105 105
-105 97 97 98 98 98 -98 97 -97 103 103 102 102 -97 98 -98 97 98 98 97 97
-105 105 -105 105 -98 -98 -97 -97 -95 95 c-52 52 -97 95 -100 95 -3 0 -50
-45 -105 -100z"/>
</g>
</svg>
